<svg width="280" height="41" viewBox="0 0 280 41" fill="none" xmlns="http://www.w3.org/2000/svg">
<circle cx="260" cy="20" r="19.5" stroke="#363636"/>
<path d="M268.713 18.9131C268.713 18.5252 268.648 18.0727 268.648 17.5556C268.584 17.0384 268.519 16.5212 268.455 16.0687C268.325 15.5515 268.131 15.1636 267.743 14.8404C267.42 14.5172 266.968 14.3232 266.515 14.2586C265.028 14.0646 262.83 14 259.857 14C256.883 14 254.62 14.0646 253.198 14.2586C252.745 14.3232 252.293 14.5172 251.97 14.8404C251.646 15.1636 251.388 15.5515 251.259 16.0687C251.129 16.5212 251.065 16.9737 251.065 17.5556C251 18.0727 251 18.5252 251 18.9131C251 19.301 251 19.7535 251 20.4C251 21.0465 251 21.5636 251 21.8869C251 22.2747 251.065 22.7273 251.065 23.2444C251.129 23.7616 251.194 24.2788 251.259 24.7313C251.388 25.2485 251.582 25.6364 251.97 25.9596C252.293 26.2828 252.745 26.4768 253.198 26.5414C254.685 26.7354 256.883 26.8 259.857 26.8C262.83 26.8 265.093 26.7354 266.515 26.5414C266.968 26.4768 267.42 26.2828 267.743 25.9596C268.067 25.6364 268.325 25.2485 268.455 24.7313C268.584 24.2788 268.648 23.8263 268.648 23.2444C268.713 22.7273 268.713 22.2747 268.713 21.8869C268.713 21.499 268.713 21.0465 268.713 20.4C268.713 19.7535 268.713 19.2364 268.713 18.9131ZM263.283 20.9172L258.176 24.0848C258.111 24.1495 257.982 24.2141 257.853 24.2141C257.723 24.2141 257.659 24.2141 257.529 24.1495C257.335 24.0202 257.206 23.8263 257.206 23.5677V17.1677C257.206 16.9091 257.335 16.7152 257.529 16.5859C257.723 16.4566 257.982 16.4566 258.176 16.5859L263.283 19.7535C263.477 19.8828 263.606 20.0768 263.606 20.2707C263.606 20.4646 263.477 20.7879 263.283 20.9172Z" fill="white"/>
<circle cx="100" cy="20" r="19.5" stroke="#363636"/>
<path d="M106.581 12H94.4192C93.0462 12 92 13.0462 92 14.4192V26.5808C92 27.9538 93.0462 29 94.4192 29H106.581C107.954 29 109 27.9538 109 26.5808V14.4192C109 13.0462 107.954 12 106.581 12ZM100.5 25.6C103.312 25.6 105.6 23.3769 105.6 20.6962C105.6 20.2385 105.535 19.7154 105.404 19.3231H106.842V26.2538C106.842 26.5808 106.581 26.9077 106.188 26.9077H94.8115C94.4846 26.9077 94.1577 26.6462 94.1577 26.2538V19.2577H95.6615C95.5308 19.7154 95.4654 20.1731 95.4654 20.6308C95.4 23.3769 97.6885 25.6 100.5 25.6ZM100.5 23.6385C98.6692 23.6385 97.2308 22.2 97.2308 20.4346C97.2308 18.6692 98.6692 17.2308 100.5 17.2308C102.331 17.2308 103.769 18.6692 103.769 20.4346C103.769 22.2654 102.331 23.6385 100.5 23.6385ZM106.777 16.6423C106.777 17.0346 106.45 17.3615 106.058 17.3615H104.227C103.835 17.3615 103.508 17.0346 103.508 16.6423V14.8769C103.508 14.4846 103.835 14.1577 104.227 14.1577H106.058C106.45 14.1577 106.777 14.4846 106.777 14.8769V16.6423Z" fill="white"/>
<circle cx="20" cy="20" r="19.5" stroke="#363636"/>
<path d="M29 13.8186C29 12.3212 27.6788 11 26.1813 11H14.8186C13.3212 11 12 12.3212 12 13.8186V25.1813C12 26.6787 13.3212 28 14.8186 28H20.544V21.5699H18.4301V18.7513H20.544V17.6062C20.544 15.6684 21.9534 13.9948 23.715 13.9948H26.0052V16.8135H23.715C23.4508 16.8135 23.1865 17.0777 23.1865 17.6062V18.7513H26.0052V21.5699H23.1865V28H26.1813C27.6788 28 29 26.6787 29 25.1813V13.8186Z" fill="white"/>
<circle cx="180" cy="21" r="19.5" stroke="#55ACE3"/>
<path d="M190.6 15.9C189.9 16.2 189.1 16.4 188.3 16.5C189.1 16 189.8 15.2 190.1 14.3C189.3 14.8 188.5 15.1 187.5 15.3C186.8 14.5 185.7 14 184.6 14C182.4 14 180.6 15.8 180.6 18C180.6 18.3 180.6 18.6 180.7 18.9C177.4 18.7 174.4 17.1 172.4 14.7C172.1 15.3 171.9 16 171.9 16.7C171.9 18.1 172.6 19.3 173.7 20C173 20 172.4 19.8 171.9 19.5C171.9 21.4 173.3 23.1 175.1 23.4C174.8 23.5 174.4 23.5 174 23.5C173.7 23.5 173.5 23.5 173.2 23.4C173.7 25 175.2 26.2 177 26.2C175.6 27.3 173.9 27.9 172 27.9C171.7 27.9 171.4 27.9 171 27.8C172.8 28.9 174.9 29.6 177.2 29.6C184.6 29.6 188.6 23.5 188.6 18.2V17.7C189.4 17.4 190.1 16.7 190.6 15.9Z" fill="#55ACE3"/>
</svg>
